<svg id="l_d_2144" xmlns="http://www.w3.org/2000/svg" xmlns:xlink="http://www.w3.org/1999/xlink" viewBox="0 0 45 45" width="45" height="45" preserveAspectRatio="xMidYMid meet" style="
                          width: 100%;
                          height: 100%;
                          transform: translate3d(0px, 0px, 0px);
                          content-visibility: visible;
                        ">
                        <defs id="l_d_2145">
                          <clipPath id="__lottie_element_952">
                            <rect id="l_d_2148" width="45" height="45" x="0" y="0"></rect>
                          </clipPath>
                          <clipPath id="__lottie_element_954">
                            <path id="l_d_2151" fill="#ffffff" clip-rule="nonzero"></path>
                            <path id="l_d_2152" fill="#ffffff" clip-rule="nonzero"></path>
                          </clipPath>
                          <clipPath id="__lottie_element_957">
                            <path id="l_d_2159" fill="#ffffff" clip-rule="nonzero"></path>
                            <path id="l_d_2160" fill="#ffffff" clip-rule="nonzero"></path>
                          </clipPath>
                          <clipPath id="__lottie_element_960">
                            <path id="l_d_2167" fill="#ffffff" clip-rule="nonzero"></path>
                            <path id="l_d_2168" fill="#ffffff" clip-rule="nonzero"></path>
                          </clipPath>
                          <clipPath id="__lottie_element_963">
                            <path id="l_d_2175" fill="#ffffff" clip-rule="nonzero"></path>
                            <path id="l_d_2176" fill="#ffffff" clip-rule="nonzero"></path>
                          </clipPath>
                          <clipPath id="__lottie_element_966">
                            <path id="l_d_2183" fill="#ffffff" clip-rule="nonzero"></path>
                            <path id="l_d_2184" fill="#ffffff" clip-rule="nonzero"></path>
                          </clipPath>
                          <clipPath id="__lottie_element_969">
                            <path id="l_d_2191" fill="#ffffff" clip-rule="nonzero"></path>
                            <path id="l_d_2192" fill="#ffffff" clip-rule="nonzero"></path>
                          </clipPath>
                          <clipPath id="__lottie_element_972">
                            <path id="l_d_2199" fill="#ffffff" clip-rule="nonzero"></path>
                            <path id="l_d_2200" fill="#ffffff" clip-rule="nonzero"></path>
                          </clipPath>
                        </defs>
                        <g id="l_d_2146" clip-path="url(#__lottie_element_952)">
                          <g id="l_d_2223" transform="matrix(1.0000008344650269,0,0,1.0000008344650269,-24.00003433227539,-18.374406814575195)" opacity="1" style="display: block">
                            <g id="l_d_2227" opacity="1" transform="matrix(1,0,0,1,51,50)">
                              <path id="l_d_2228" stroke-linecap="butt" stroke-linejoin="miter" fill-opacity="0" stroke-miterlimit="4" stroke="rgb(34,34,34)" stroke-opacity="1" stroke-width="2" d=" M-2,-2 C-2,-2 2,-2 2,-2 C2,-2 2,1 2,1 C2,1.5520000457763672 1.5520000457763672,2 1,2 C1,2 -1,2 -1,2 C-1.5520000457763672,2 -2,1.5520000457763672 -2,1 C-2,1 -2,-2 -2,-2 C-2,-2 -2,-2 -2,-2z"></path>
                            </g>
                            <g id="l_d_2229" opacity="1" transform="matrix(1,0,0,1,29,50)">
                              <path id="l_d_2230" stroke-linecap="butt" stroke-linejoin="miter" fill-opacity="0" stroke-miterlimit="4" stroke="rgb(34,34,34)" stroke-opacity="1" stroke-width="2" d=" M-2,-2 C-2,-2 2,-2 2,-2 C2,-2 2,1 2,1 C2,1.5520000457763672 1.5520000457763672,2 1,2 C1,2 -1,2 -1,2 C-1.5520000457763672,2 -2,1.5520000457763672 -2,1 C-2,1 -2,-2 -2,-2 C-2,-2 -2,-2 -2,-2z"></path>
                            </g>
                          </g>
                          <g id="l_d_2205" transform="matrix(1.0000008344650269,0,0,1.0000008344650269,-24.00003433227539,-18.374406814575195)" opacity="1" style="display: block">
                            <g id="l_d_2209" opacity="1" transform="matrix(1,0,0,1,40,43)">
                              <path id="l_d_2210" stroke-linecap="butt" stroke-linejoin="miter" fill-opacity="0" stroke-miterlimit="4" stroke="rgb(34,34,34)" stroke-opacity="1" stroke-width="2" d=" M-9,-5 C-9,-5 9,-5 9,-5 C11.208999633789062,-5 13,-3.2090001106262207 13,-1 C13,-1 13,4 13,4 C13,4.552000045776367 12.552000045776367,5 12,5 C12,5 -12,5 -12,5 C-12.552000045776367,5 -13,4.552000045776367 -13,4 C-13,4 -13,-1 -13,-1 C-13,-3.2090001106262207 -11.208999633789062,-5 -9,-5z"></path>
                            </g>
                            <g id="l_d_2211" opacity="1" transform="matrix(1,0,0,1,49,43)">
                              <path id="l_d_2212" fill="rgb(34,34,34)" fill-opacity="1" d=" M0,-1 C0.5519999861717224,-1 1,-0.5519999861717224 1,0 C1,0.5519999861717224 0.5519999861717224,1 0,1 C-0.5519999861717224,1 -1,0.5519999861717224 -1,0 C-1,-0.5519999861717224 -0.5519999861717224,-1 0,-1z"></path>
                            </g>
                            <g id="l_d_2213" opacity="1" transform="matrix(1,0,0,1,31,43)">
                              <path id="l_d_2214" fill="rgb(34,34,34)" fill-opacity="1" d=" M0,-1 C0.5519999861717224,-1 1,-0.5519999861717224 1,0 C1,0.5519999861717224 0.5519999861717224,1 0,1 C-0.5519999861717224,1 -1,0.5519999861717224 -1,0 C-1,-0.5519999861717224 -0.5519999861717224,-1 0,-1z"></path>
                            </g>
                            <g id="l_d_2215" opacity="1" transform="matrix(1,0,0,1,40,34)">
                              <path id="l_d_2216" stroke-linecap="butt" stroke-linejoin="miter" fill-opacity="0" stroke-miterlimit="4" stroke="rgb(34,34,34)" stroke-opacity="1" stroke-width="2" d=" M-7.307000160217285,-4 C-7.307000160217285,-4 7.307000160217285,-4 7.307000160217285,-4 C7.723999977111816,-4 8.097000122070312,-3.740999937057495 8.243000030517578,-3.3510000705718994 C8.243000030517578,-3.3510000705718994 11,4 11,4 C11,4 11,4 11,4 C11,4 -11,4 -11,4 C-11,4 -8.243000030517578,-3.3510000705718994 -8.243000030517578,-3.3510000705718994 C-8.097000122070312,-3.740999937057495 -7.723999977111816,-4 -7.307000160217285,-4z"></path>
                            </g>
                            <g id="l_d_2217" opacity="1" transform="matrix(1,0,0,1,27.5,36)">
                              <path id="l_d_2218" fill="rgb(34,34,34)" fill-opacity="1" d=" M-1.5,-1 C-1.5,-1 1.5,-1 1.5,-1 C1.5,-1 1.5,1 1.5,1 C1.5,1 -1.5,1 -1.5,1 C-1.5,1 -1.5,-1 -1.5,-1z"></path>
                            </g>
                            <g id="l_d_2219" opacity="1" transform="matrix(1,0,0,1,52.5,36)">
                              <path id="l_d_2220" fill="rgb(34,34,34)" fill-opacity="1" d=" M-1.5,-1 C-1.5,-1 1.5,-1 1.5,-1 C1.5,-1 1.5,1 1.5,1 C1.5,1 -1.5,1 -1.5,1 C-1.5,1 -1.5,-1 -1.5,-1z"></path>
                            </g>
                            <g id="l_d_2221" opacity="1" transform="matrix(1,0,0,1,40,43)">
                              <path id="l_d_2222" stroke-linecap="butt" stroke-linejoin="miter" fill-opacity="0" stroke-miterlimit="4" stroke="rgb(34,34,34)" stroke-opacity="1" stroke-width="2" d=" M-6,0 C-6,0 6,0 6,0"></path>
                            </g>
                          </g>
                          <g id="l_d_2197" clip-path="url(#__lottie_element_972)" style="display: none">
                            <g id="l_d_2203"><path id="l_d_2204"></path></g>
                          </g>
                          <g id="l_d_2189" clip-path="url(#__lottie_element_969)" style="display: none">
                            <g id="l_d_2195"><path id="l_d_2196"></path></g>
                          </g>
                          <g id="l_d_2181" clip-path="url(#__lottie_element_966)" style="display: none">
                            <g id="l_d_2187"><path id="l_d_2188"></path></g>
                          </g>
                          <g id="l_d_2173" clip-path="url(#__lottie_element_963)" style="display: none">
                            <g id="l_d_2179"><path id="l_d_2180"></path></g>
                          </g>
                          <g id="l_d_2165" clip-path="url(#__lottie_element_960)" style="display: none">
                            <g id="l_d_2171"><path id="l_d_2172"></path></g>
                          </g>
                          <g id="l_d_2157" clip-path="url(#__lottie_element_957)" style="display: none">
                            <g id="l_d_2163"><path id="l_d_2164"></path></g>
                          </g>
                          <g id="l_d_2149" clip-path="url(#__lottie_element_954)" style="display: none">
                            <g id="l_d_2155"><path id="l_d_2156"></path></g>
                          </g>
                        </g>
                      </svg>