<svg id="l_d_2518" xmlns="http://www.w3.org/2000/svg" xmlns:xlink="http://www.w3.org/1999/xlink" viewBox="0 0 45 45" width="45" height="45" preserveAspectRatio="xMidYMid meet" style="
                          width: 100%;
                          height: 100%;
                          transform: translate3d(0px, 0px, 0px);
                          content-visibility: visible;
                        ">
                        <defs id="l_d_2519">
                          <clipPath id="__lottie_element_1091">
                            <rect id="l_d_2522" width="45" height="45" x="0" y="0"></rect>
                          </clipPath>
                        </defs>
                        <g id="l_d_2520" clip-path="url(#__lottie_element_1091)">
                          <g id="l_d_2543" transform="matrix(1,0,0,1,-25,-17.625)" opacity="1" style="display: block">
                            <g id="l_d_2547" opacity="1" transform="matrix(1,0,0,1,40,30)">
                              <path id="l_d_2548" stroke-linecap="butt" stroke-linejoin="round" fill-opacity="0" stroke="rgb(34,34,34)" stroke-opacity="1" stroke-width="2" d=" M0,-4 C5.585000038146973,-4 10.406000137329102,-0.7300000190734863 12.652999877929688,4 C12.652999877929688,4 -12.652999877929688,4 -12.652999877929688,4 C-10.406000137329102,-0.7300000190734863 -5.585000038146973,-4 0,-4z"></path>
                            </g>
                          </g>
                          <g id="l_d_2537" transform="matrix(1,0,0,1,-25,-17.625)" opacity="1" style="display: block">
                            <g id="l_d_2541" opacity="1" transform="matrix(1,0,0,1,40,44.5)">
                              <path id="l_d_2542" stroke-linecap="butt" stroke-linejoin="miter" fill-opacity="0" stroke-miterlimit="4" stroke="rgb(34,34,34)" stroke-opacity="1" stroke-width="2" d=" M0,-10.5 C0,-10.5 0,10.5 0,10.5"></path>
                            </g>
                          </g>
                          <g id="l_d_2523" transform="matrix(1,0,0,1,-25,-17.625)" opacity="1" style="display: block">
                            <g id="l_d_2527" opacity="1" transform="matrix(1,0,0,1,52,47)">
                              <path id="l_d_2528" stroke-linecap="butt" stroke-linejoin="miter" fill-opacity="0" stroke-miterlimit="4" stroke="rgb(34,34,34)" stroke-opacity="1" stroke-width="2" d=" M0,8 C0,8 0,-8 0,-8"></path>
                            </g>
                            <g id="l_d_2529" opacity="1" transform="matrix(1,0,0,1,48,51.5)">
                              <path id="l_d_2530" stroke-linecap="butt" stroke-linejoin="miter" fill-opacity="0" stroke-miterlimit="4" stroke="rgb(34,34,34)" stroke-opacity="1" stroke-width="2" d=" M4,-3.5 C4,-3.5 -3,-3.5 -3,-3.5 C-3.552000045776367,-3.5 -4,-3.052000045776367 -4,-2.5 C-4,-2.5 -4,3.5 -4,3.5 C-4,3.5 -4,3.5 -4,3.5"></path>
                            </g>
                            <g id="l_d_2531" opacity="1" transform="matrix(1,0,0,1,28,47)">
                              <path id="l_d_2532" stroke-linecap="butt" stroke-linejoin="miter" fill-opacity="0" stroke-miterlimit="4" stroke="rgb(34,34,34)" stroke-opacity="1" stroke-width="2" d=" M0,8 C0,8 0,-8 0,-8"></path>
                            </g>
                            <g id="l_d_2533" opacity="1" transform="matrix(1,0,0,1,32,51.5)">
                              <path id="l_d_2534" stroke-linecap="butt" stroke-linejoin="miter" fill-opacity="0" stroke-miterlimit="4" stroke="rgb(34,34,34)" stroke-opacity="1" stroke-width="2" d=" M-4,-3.5 C-4,-3.5 3,-3.5 3,-3.5 C3.552000045776367,-3.5 4,-3.052000045776367 4,-2.5 C4,-2.5 4,3.5 4,3.5 C4,3.5 4,3.5 4,3.5"></path>
                            </g>
                            <g id="l_d_2535" opacity="1" transform="matrix(1,0,0,1,40,44)">
                              <path id="l_d_2536" stroke-linecap="butt" stroke-linejoin="miter" fill-opacity="0" stroke-miterlimit="4" stroke="rgb(34,34,34)" stroke-opacity="1" stroke-width="2" d=" M-9,0 C-9,0 9,0 9,0"></path>
                            </g>
                          </g>
                        </g>
                      </svg>