<svg width="512" height="310" viewBox="0 0 512 310" fill="none" xmlns="http://www.w3.org/2000/svg">
<path d="M430.324 221.939C433.51 223.939 437.196 225 440.958 225H458.949C477.395 225 486.007 202.155 472.152 189.978L269.203 11.6045C261.652 4.96768 250.348 4.96768 242.797 11.6045L39.8477 189.978C25.9929 202.155 34.6055 225 53.051 225H71.0424C74.8044 225 78.4901 223.939 81.6763 221.939L245.366 119.176C251.868 115.094 260.132 115.094 266.634 119.176L430.324 221.939ZM121.176 51.2258C125.513 47.4281 128 41.9438 128 36.1791V20C128 8.95431 119.046 0 108 0H71.2C60.1543 0 51.2 8.95431 51.2 20V68.403C51.2 85.5897 71.4455 94.772 84.3756 83.4497L121.176 51.2258Z" fill="url(#paint0_linear_903_36)"/>
<path d="M115.838 290.409C115.84 291.433 115.37 291.264 114.429 289.9C113.572 288.622 112.714 286.192 111.853 282.61C111.68 281.842 111.551 281.032 111.463 280.179C111.376 279.24 111.331 278.302 111.329 277.363C111.321 273.608 111.781 269.298 112.709 264.432C113.637 259.481 114.778 254.358 116.131 249.064C117.57 243.685 118.967 238.477 120.321 233.439C121.676 228.402 122.818 223.919 123.748 219.992C124.678 215.979 125.141 212.949 125.136 210.901C125.134 209.877 125.047 209.194 124.876 208.853C124.704 208.512 124.618 208.214 124.618 207.958C124.616 207.104 125.297 206.676 126.663 206.673C128.113 206.67 129.907 207.221 132.042 208.326C134.178 209.345 136.016 210.877 137.556 212.922C139.097 214.966 139.7 217.397 139.364 220.214C139.365 220.47 139.323 220.726 139.238 220.982C139.239 221.238 139.197 221.537 139.112 221.878C141.764 224.688 144.16 228.011 146.302 231.846C148.444 235.682 150.671 239.73 152.984 243.992C155.383 248.168 158.123 252.343 161.204 256.518C161.204 256.689 161.675 257.456 162.617 258.819C163.644 260.097 164.927 261.715 166.467 263.675C168.008 265.548 169.633 267.508 171.344 269.552C173.141 271.596 174.724 273.47 176.093 275.174L176.09 273.894C176.257 272.528 176.593 270.052 177.098 266.467C177.687 262.882 178.361 258.699 179.118 253.919C179.961 249.053 180.846 244.059 181.773 238.937C182.701 233.815 183.629 228.992 184.558 224.467C185.486 219.857 186.374 216.058 187.221 213.069C187.221 213.069 187.647 212.983 188.5 212.81C189.353 212.638 190.206 212.551 191.06 212.549C191.998 212.547 192.767 212.673 193.365 212.928C194.048 213.182 194.39 213.736 194.392 214.589C194.393 215.016 194.351 215.357 194.266 215.614C193.843 217.065 193.208 219.541 192.363 223.042C191.517 226.542 190.545 230.683 189.446 235.464C188.347 240.245 187.163 245.24 185.895 250.448C184.711 255.656 183.528 260.736 182.344 265.688C181.16 270.64 180.06 275.037 179.045 278.879L179.814 279.517C181.267 280.709 182.251 281.773 182.765 282.711C183.279 283.563 183.536 284.203 183.537 284.629C183.539 285.227 183.113 285.526 182.259 285.528C181.15 285.53 179.613 285.107 177.648 284.258C177.14 286.051 176.674 287.46 176.25 288.485C175.825 289.51 175.656 290.022 175.741 290.022C175.656 290.108 175.485 290.151 175.229 290.151C174.632 290.153 174.332 289.471 174.329 288.105C174.327 287.423 174.411 286.612 174.58 285.673C174.748 284.734 174.874 283.71 174.957 282.6C170.342 279.623 166.025 276.134 162.006 272.132C158.072 268.045 154.222 263.616 150.457 258.845C147.804 255.438 145.537 252.627 143.654 250.412C141.857 248.112 140.146 246.068 138.521 244.28C136.981 242.406 135.313 240.404 133.516 238.274C131.733 242.46 129.78 246.859 127.657 251.471C125.619 256.084 123.623 260.611 121.67 265.052C119.803 269.408 118.275 273.465 117.089 277.222C115.902 280.894 115.312 283.968 115.317 286.442C115.318 286.869 115.319 287.253 115.32 287.594C115.406 288.021 115.492 288.405 115.578 288.746C115.664 289.087 115.707 289.385 115.708 289.641C115.794 289.983 115.837 290.239 115.838 290.409ZM213.945 289.427C210.531 289.434 207.33 288.801 204.341 287.528C201.351 286.34 198.915 284.425 197.032 281.784C195.491 279.568 194.42 277.437 193.818 275.391C193.216 273.259 192.913 271.254 192.909 269.377C192.905 267.585 193.115 265.963 193.538 264.511C193.962 262.974 194.471 261.736 195.066 260.796C196.851 257.72 198.723 255.156 200.681 253.104C202.725 251.051 204.94 249.212 207.325 247.585C210.478 245.53 214.359 244.498 218.967 244.488C220.673 244.484 222.467 245.163 224.347 246.524C226.227 247.885 228.961 249.287 232.548 250.73C234.94 251.664 237.161 252.768 239.212 254.044C241.348 255.234 243.057 256.467 244.34 257.744C245.708 258.936 246.393 260.087 246.395 261.196C246.398 262.391 245.419 263.374 243.458 264.146C240.644 265.091 237.318 265.952 233.479 266.728C229.641 267.419 225.802 267.982 221.963 268.417C218.209 268.852 214.882 269.073 211.98 269.079C209.762 269.084 208.055 268.96 206.86 268.706C206.352 270.585 206.1 272.548 206.104 274.596C206.108 276.303 206.368 278.009 206.884 279.714C207.399 281.42 208.256 282.997 209.454 284.445C210.309 285.381 211.249 286.062 212.274 286.486C213.384 286.825 214.494 286.994 215.603 286.991C217.481 286.987 219.315 286.684 221.106 286.083C222.981 285.396 224.601 284.71 225.965 284.025C227.329 283.254 228.181 282.74 228.522 282.483C230.226 281.455 231.504 280.684 232.357 280.171C233.294 279.657 234.19 279.399 235.043 279.397C236.579 279.393 237.348 279.733 237.349 280.416C237.35 280.842 236.925 281.483 236.073 282.338C235.222 283.108 233.73 284.008 231.599 285.036C228.872 286.408 225.973 287.481 222.902 288.255C219.917 289.03 216.931 289.42 213.945 289.427ZM214.915 264.849C217.646 264.843 220.845 264.708 224.514 264.444C228.183 264.094 232.15 263.531 236.415 262.754C238.803 262.236 239.996 261.509 239.994 260.57C239.992 259.802 239.436 258.992 238.325 258.141C237.298 257.205 235.974 256.355 234.351 255.59C232.813 254.826 231.276 254.189 229.739 253.68C228.287 253.086 227.177 252.79 226.409 252.792C222.739 252.8 219.584 253.574 216.942 255.116C214.385 256.658 212.171 258.668 210.299 261.147C209.703 261.916 209.066 263.027 208.386 264.479C209.838 264.732 212.014 264.855 214.915 264.849ZM260.545 287.917C258.155 287.922 255.68 287.757 253.12 287.421C250.644 287.171 248.553 286.663 246.844 285.899C245.221 285.049 244.408 283.899 244.405 282.448C244.403 281.68 244.7 281.082 245.297 280.654C245.978 280.141 246.746 279.883 247.599 279.881C248.026 279.88 248.751 279.964 249.776 280.133C250.8 280.301 251.526 280.427 251.952 280.512C254.513 280.762 257.713 280.883 261.553 280.875C264.881 280.868 268.166 280.732 271.408 280.469C274.65 280.206 277.338 279.816 279.47 279.3C281.687 278.783 282.795 278.14 282.794 277.372C282.792 276.69 282.108 276.009 280.741 275.329C279.374 274.564 278.093 273.927 276.897 273.417C274.591 272.313 272.028 271.209 269.21 270.106C266.391 269.003 263.787 268.027 261.395 267.179C259.089 266.245 257.552 265.609 256.783 265.269C254.135 264.08 251.828 262.805 249.863 261.444C247.897 260.083 246.913 258.592 246.909 256.971C246.906 255.691 247.799 254.025 249.586 251.973C251.714 249.664 254.356 247.781 257.51 246.324C260.749 244.78 264.203 243.621 267.87 242.845C271.623 242.069 275.292 241.677 278.876 241.669C281.606 241.663 284.167 241.871 286.557 242.292C289.033 242.713 291.167 243.349 292.961 244.198C294.157 244.793 295.225 245.558 296.166 246.495C297.192 247.346 297.706 248.113 297.707 248.796C297.708 249.308 297.453 249.692 296.942 249.949C296.516 250.206 295.961 250.336 295.279 250.337C294.937 250.338 294.596 250.339 294.255 250.339C293.998 250.255 293.742 250.17 293.486 250.085C291.693 249.406 289.857 248.856 287.978 248.433C286.1 248.01 284.18 247.801 282.217 247.806C279.572 247.811 276.714 248.415 273.645 249.616C270.661 250.732 268.104 252.188 265.975 253.985C263.93 255.782 262.91 257.618 262.915 259.496C262.917 260.434 263.303 261.458 264.073 262.565C264.843 263.588 266.169 264.694 268.049 265.885C271.21 267.755 274.413 269.327 277.659 270.6C280.904 271.787 283.595 272.933 285.73 274.038C288.977 275.823 290.603 277.825 290.607 280.043C290.611 281.665 289.59 282.99 287.544 284.018C285.498 285.046 282.897 285.82 279.741 286.339C276.585 286.943 273.258 287.335 269.76 287.513C266.347 287.776 263.275 287.911 260.545 287.917ZM315.167 289.59C314.485 289.591 313.631 289.294 312.605 288.699C311.58 288.19 310.383 286.997 309.014 285.123C307.901 283.59 307.043 281.458 306.44 278.729C305.922 275.999 305.66 273.269 305.654 270.538C305.646 266.954 305.853 263.967 306.274 261.577C306.696 259.187 306.991 257.65 307.16 256.967C305.878 255.775 304.809 254.924 303.955 254.414C303.1 253.904 302.672 253.308 302.671 252.625C302.668 251.43 303.477 250.49 305.096 249.804C306.801 249.032 308.678 248.558 310.725 248.383C311.489 246.59 312.168 244.668 312.761 242.619C313.353 240.484 313.946 238.478 314.54 236.599C315.133 234.635 315.769 233.098 316.45 231.987C317.64 230.021 319.472 228.695 321.945 228.007C324.503 227.318 326.935 226.972 329.239 226.967C331.543 226.962 333.378 227.214 334.744 227.723C336.196 228.146 336.538 228.658 335.772 229.257C334.408 230.198 332.919 231.823 331.302 234.13C329.686 236.352 328.112 238.788 326.582 241.437C325.052 244.085 323.649 246.52 322.374 248.742L339.27 248.705C342.342 248.698 343.879 248.951 343.88 249.463C343.882 250.316 342.005 250.832 338.251 251.011C333.387 251.107 329.804 251.243 327.5 251.419C325.282 251.594 323.703 251.768 322.765 251.941C321.571 252.2 320.676 252.586 320.08 253.099C319.483 253.612 318.973 254.467 318.549 255.662C317.107 259.335 315.92 263.177 314.99 267.19C314.146 271.117 313.727 274.702 313.734 277.945C313.739 280.419 314 282.552 314.516 284.343C315.117 286.048 315.973 287.199 317.083 287.793C317.34 287.878 317.468 288.049 317.469 288.305C317.469 288.561 317.256 288.817 316.83 289.074C316.404 289.416 315.85 289.588 315.167 289.59ZM342.755 287.865C341.731 287.868 340.833 287.187 340.062 285.823C339.376 284.374 338.818 282.754 338.388 280.963C337.957 279.087 337.74 277.508 337.737 276.228C337.731 273.412 338.108 270.126 338.868 266.37C339.713 262.613 340.814 258.686 342.17 254.587C343.526 250.402 345.011 246.303 346.623 242.289C348.236 238.275 349.892 234.559 351.591 231.142C353.29 227.64 354.82 224.778 356.18 222.556C357.37 220.591 359.074 219.264 361.291 218.577C363.594 217.804 365.769 217.415 367.817 217.41C369.865 217.406 371.487 217.658 372.682 218.168C373.878 218.677 374.221 219.274 373.71 219.958C371.073 223.377 368.308 227.393 365.417 232.008C362.525 236.622 359.72 241.492 357.001 246.618C354.366 251.744 351.988 256.826 349.866 261.866C347.829 266.905 346.261 271.602 345.161 275.956C344.061 280.311 343.685 283.938 344.032 286.839C344.034 287.521 343.608 287.864 342.755 287.865ZM380.897 308.902C380.299 308.903 380 308.605 379.999 308.008C379.998 307.496 380.209 306.728 380.634 305.703C381.058 304.763 381.568 303.653 382.162 302.371C384.117 298.527 386.029 294.939 387.899 291.607C389.854 288.274 391.81 285.07 393.766 281.994C389.836 279.699 386.331 277.061 383.253 274.081C380.259 271.101 377.693 268.205 375.554 265.394C373.5 262.582 371.916 260.196 370.802 258.236C369.774 256.276 369.259 255.21 369.259 255.039C369.258 254.613 369.641 254.271 370.409 254.013C371.262 253.755 372.2 253.582 373.224 253.495C374.333 253.407 375.271 253.362 376.039 253.361C376.893 253.359 377.319 253.358 377.319 253.358C378.784 259.84 381.271 265.296 384.779 269.726C388.373 274.07 391.964 277.262 395.552 279.302C399.124 273.662 402.098 267.938 404.475 262.13C406.936 256.237 409.354 249.576 411.727 242.147C411.726 241.891 412.067 241.762 412.75 241.76C413.603 241.758 414.799 241.969 416.336 242.393C417.958 242.816 419.538 243.41 421.075 244.174C422.698 244.853 423.98 245.661 424.921 246.598C425.947 247.449 426.332 248.301 426.078 249.155C424.552 253.596 422.386 258.379 419.582 263.505C416.777 268.546 413.63 273.545 410.142 278.502C406.74 283.374 403.294 287.904 399.804 292.093C396.315 296.282 393.122 299.787 390.227 302.61C387.417 305.432 385.202 307.229 383.583 308C382.389 308.6 381.494 308.901 380.897 308.902Z" fill="url(#paint1_linear_903_36)"/>
<defs>
<linearGradient id="paint0_linear_903_36" x1="188.632" y1="-2.3234e-05" x2="463.243" y2="227.436" gradientUnits="userSpaceOnUse">
<stop stop-color="#312EBE"/>
<stop offset="1" stop-color="#171558"/>
</linearGradient>
<linearGradient id="paint1_linear_903_36" x1="368.483" y1="497.945" x2="15.0392" y2="451.031" gradientUnits="userSpaceOnUse">
<stop/>
<stop offset="1" stop-color="#666666"/>
</linearGradient>
</defs>
</svg>
