<svg width="513" height="512" viewBox="0 0 513 512" fill="none" xmlns="http://www.w3.org/2000/svg">
<path d="M430.937 316.167C434.357 318.658 438.479 320 442.711 320H465.369C483.094 320 492.058 298.649 479.647 285.995L271.278 73.5571C263.438 65.5634 250.562 65.5634 242.722 73.5571L34.3533 285.995C21.9417 298.649 30.9065 320 48.6315 320H71.2894C75.5205 320 79.6427 318.658 83.063 316.167L245.226 198.074C252.244 192.964 261.756 192.964 268.774 198.074L430.937 316.167ZM123.252 117.328C126.936 113.587 129 108.547 129 103.297V79C129 67.9543 120.046 59 109 59H72.2C61.1543 59 52.2 67.9543 52.2 79V140.677C52.2 158.571 73.8988 167.459 86.4522 154.708L123.252 117.328Z" fill="url(#paint0_linear_903_28)"/>
<path d="M66.8769 450.584C66.8797 451.864 66.2926 451.652 65.1155 449.948C64.0454 448.35 62.9721 445.312 61.8956 440.835C61.6802 439.875 61.518 438.862 61.409 437.796C61.2998 436.623 61.2439 435.45 61.2413 434.276C61.231 429.583 61.8059 424.195 62.966 418.112C64.1258 411.923 65.5518 405.52 67.244 398.903C69.0427 392.179 70.7885 385.669 72.4814 379.372C74.1743 373.074 75.602 367.471 76.7646 362.562C77.927 357.546 78.5054 353.758 78.4998 351.198C78.497 349.918 78.3885 349.065 78.1742 348.639C77.96 348.213 77.8525 347.84 77.8518 347.52C77.8495 346.453 78.7016 345.918 80.4083 345.914C82.2216 345.91 84.4631 346.599 87.1328 347.979C89.8023 349.254 92.0998 351.169 94.0254 353.724C95.951 356.28 96.7043 359.319 96.2853 362.839C96.286 363.159 96.2334 363.48 96.1274 363.8C96.1281 364.12 96.0756 364.493 95.9698 364.92C99.2842 368.433 102.28 372.586 104.957 377.381C107.634 382.175 110.419 387.235 113.31 392.562C116.308 397.782 119.733 403.002 123.585 408.22C123.585 408.433 124.174 409.392 125.351 411.096C126.634 412.693 128.239 414.716 130.164 417.166C132.089 419.508 134.121 421.957 136.26 424.512C138.506 427.067 140.484 429.41 142.196 431.539L142.192 429.939C142.402 428.232 142.822 425.138 143.452 420.657C144.189 416.175 145.031 410.946 145.977 404.971C147.031 398.889 148.137 392.646 149.297 386.244C150.456 379.841 151.616 373.812 152.777 368.156C153.938 362.393 155.047 357.644 156.106 353.909C156.106 353.909 156.639 353.801 157.705 353.585C158.771 353.37 159.838 353.261 160.905 353.258C162.078 353.256 163.038 353.414 163.786 353.732C164.64 354.05 165.068 354.742 165.07 355.809C165.071 356.342 165.019 356.769 164.913 357.09C164.384 358.904 163.59 361.999 162.533 366.375C161.476 370.75 160.261 375.926 158.887 381.903C157.513 387.879 156.034 394.122 154.448 400.632C152.969 407.142 151.489 413.492 150.01 419.682C148.53 425.872 147.155 431.368 145.886 436.171L146.847 436.969C148.664 438.459 149.894 439.789 150.536 440.961C151.178 442.026 151.5 442.826 151.501 443.359C151.503 444.106 150.97 444.48 149.904 444.483C148.517 444.486 146.596 443.956 144.14 442.895C143.505 445.136 142.922 446.898 142.392 448.179C141.861 449.46 141.649 450.101 141.756 450.1C141.65 450.207 141.436 450.261 141.116 450.262C140.37 450.263 139.995 449.411 139.991 447.704C139.989 446.851 140.093 445.837 140.304 444.663C140.515 443.49 140.672 442.209 140.776 440.822C135.008 437.102 129.611 432.74 124.587 427.738C119.669 422.629 114.857 417.092 110.151 411.129C106.835 406.87 104.001 403.356 101.648 400.588C99.4015 397.713 97.2626 395.157 95.231 392.922C93.3059 390.579 91.2204 388.077 88.9746 385.415C86.746 390.647 84.3047 396.146 81.6506 401.912C79.1032 407.677 76.6089 413.336 74.1677 418.888C71.8329 424.333 69.924 429.404 68.4409 434.1C66.9576 438.69 66.2193 442.532 66.2261 445.625C66.2273 446.159 66.2283 446.639 66.2293 447.065C66.3371 447.598 66.4448 448.078 66.5524 448.505C66.66 448.931 66.7141 449.304 66.7148 449.624C66.8224 450.051 66.8765 450.371 66.8769 450.584ZM189.511 449.356C185.244 449.365 181.242 448.574 177.506 446.982C173.769 445.497 170.724 443.104 168.37 439.802C166.444 437.033 165.105 434.369 164.352 431.811C163.6 429.146 163.221 426.64 163.216 424.293C163.211 422.053 163.473 420.026 164.003 418.212C164.532 416.29 165.168 414.742 165.913 413.567C168.144 409.723 170.484 406.517 172.932 403.952C175.486 401.387 178.254 399.087 181.237 397.054C185.178 394.485 190.028 393.195 195.788 393.182C197.921 393.177 200.163 394.026 202.514 395.727C204.864 397.429 208.281 399.182 212.765 400.985C215.754 402.152 218.531 403.532 221.094 405.127C223.764 406.614 225.901 408.156 227.504 409.753C229.214 411.242 230.071 412.681 230.074 414.067C230.077 415.561 228.853 416.79 226.402 417.755C222.884 418.936 218.727 420.012 213.929 420.983C209.131 421.846 204.332 422.55 199.533 423.094C194.841 423.638 190.682 423.913 187.055 423.921C184.282 423.927 182.148 423.772 180.654 423.455C180.019 425.803 179.705 428.257 179.71 430.817C179.715 432.951 180.04 435.083 180.684 437.215C181.329 439.347 182.4 441.318 183.897 443.128C184.966 444.299 186.142 445.15 187.423 445.681C188.81 446.104 190.197 446.314 191.584 446.311C193.931 446.306 196.223 445.928 198.462 445.176C200.806 444.318 202.831 443.46 204.536 442.603C206.241 441.639 207.306 440.997 207.732 440.676C209.862 439.391 211.46 438.428 212.526 437.786C213.698 437.143 214.817 436.821 215.883 436.818C217.803 436.814 218.764 437.239 218.766 438.092C218.767 438.625 218.236 439.427 217.172 440.496C216.107 441.458 214.243 442.582 211.579 443.868C208.169 445.582 204.546 446.923 200.708 447.892C196.976 448.86 193.244 449.348 189.511 449.356ZM190.724 418.633C194.137 418.626 198.137 418.457 202.723 418.127C207.308 417.69 212.267 416.986 217.598 416.015C220.583 415.368 222.075 414.458 222.072 413.285C222.07 412.325 221.374 411.313 219.985 410.249C218.703 409.079 217.047 408.016 215.018 407.06C213.096 406.104 211.175 405.309 209.253 404.673C207.438 403.93 206.051 403.56 205.091 403.562C200.504 403.572 196.56 404.54 193.257 406.468C190.061 408.395 187.293 410.907 184.954 414.006C184.209 414.967 183.412 416.356 182.563 418.171C184.377 418.487 187.097 418.641 190.724 418.633ZM247.761 447.469C244.774 447.475 241.68 447.269 238.479 446.849C235.385 446.536 232.77 445.901 230.635 444.946C228.606 443.884 227.59 442.446 227.586 440.633C227.583 439.673 227.955 438.925 228.701 438.39C229.553 437.748 230.512 437.426 231.579 437.424C232.112 437.423 233.019 437.528 234.299 437.738C235.58 437.949 236.487 438.107 237.02 438.212C240.221 438.525 244.221 438.676 249.021 438.666C253.181 438.657 257.288 438.488 261.34 438.159C265.393 437.83 268.752 437.343 271.417 436.697C274.189 436.051 275.574 435.248 275.572 434.288C275.57 433.435 274.715 432.583 273.006 431.734C271.297 430.777 269.696 429.981 268.201 429.344C265.318 427.964 262.115 426.584 258.592 425.205C255.069 423.826 251.813 422.606 248.824 421.546C245.941 420.379 244.02 419.583 243.059 419.159C239.749 417.673 236.865 416.079 234.408 414.378C231.951 412.676 230.72 410.813 230.716 408.786C230.713 407.186 231.828 405.103 234.062 402.539C236.723 399.653 240.024 397.299 243.967 395.477C248.016 393.548 252.333 392.099 256.917 391.129C261.609 390.158 266.194 389.668 270.674 389.659C274.088 389.651 277.288 389.911 280.276 390.438C283.371 390.964 286.039 391.758 288.281 392.82C289.776 393.563 291.112 394.521 292.288 395.691C293.57 396.755 294.212 397.714 294.214 398.567C294.215 399.207 293.896 399.688 293.257 400.009C292.724 400.33 292.031 400.492 291.178 400.494C290.751 400.495 290.325 400.496 289.898 400.497C289.578 400.391 289.258 400.285 288.937 400.179C286.695 399.33 284.401 398.642 282.053 398.114C279.705 397.585 277.304 397.324 274.851 397.329C271.544 397.337 267.973 398.091 264.136 399.593C260.406 400.988 257.21 402.808 254.548 405.054C251.993 407.299 250.718 409.595 250.723 411.942C250.726 413.115 251.208 414.394 252.171 415.779C253.134 417.057 254.79 418.44 257.14 419.928C261.092 422.266 265.097 424.231 269.153 425.822C273.21 427.306 276.573 428.739 279.243 430.12C283.301 432.351 285.333 434.853 285.339 437.627C285.344 439.653 284.067 441.309 281.51 442.595C278.953 443.881 275.702 444.848 271.756 445.496C267.811 446.252 263.652 446.741 259.279 446.964C255.014 447.293 251.174 447.461 247.761 447.469ZM316.039 449.56C315.186 449.561 314.118 449.19 312.837 448.447C311.555 447.809 310.059 446.319 308.347 443.976C306.956 442.059 305.883 439.395 305.129 435.983C304.482 432.571 304.154 429.159 304.147 425.745C304.137 421.265 304.396 417.532 304.923 414.544C305.449 411.556 305.818 409.635 306.03 408.781C304.427 407.291 303.091 406.228 302.023 405.59C300.955 404.952 300.42 404.207 300.418 403.354C300.415 401.86 301.426 400.685 303.45 399.827C305.582 398.862 307.927 398.27 310.487 398.052C311.442 395.809 312.29 393.408 313.031 390.846C313.772 388.178 314.513 385.669 315.254 383.321C315.996 380.866 316.791 378.944 317.642 377.556C319.13 375.099 321.419 373.441 324.511 372.581C327.709 371.721 330.748 371.287 333.628 371.281C336.508 371.275 338.802 371.59 340.51 372.226C342.325 372.755 342.753 373.394 341.794 374.143C340.09 375.32 338.228 377.351 336.208 380.235C334.187 383.013 332.22 386.057 330.308 389.368C328.395 392.679 326.641 395.723 325.048 398.5L346.167 398.454C350.007 398.445 351.928 398.761 351.93 399.401C351.932 400.468 349.587 401.113 344.894 401.336C338.814 401.456 334.334 401.626 331.455 401.846C328.682 402.065 326.709 402.283 325.536 402.499C324.044 402.822 322.925 403.304 322.179 403.946C321.434 404.588 320.796 405.656 320.266 407.15C318.463 411.741 316.98 416.544 315.818 421.56C314.762 426.469 314.238 430.95 314.247 435.003C314.254 438.097 314.58 440.763 315.225 443.001C315.976 445.133 317.046 446.571 318.434 447.314C318.754 447.42 318.915 447.633 318.916 447.953C318.916 448.273 318.65 448.594 318.118 448.915C317.585 449.343 316.892 449.558 316.039 449.56ZM350.523 447.404C349.243 447.407 348.121 446.556 347.158 444.852C346.3 443.04 345.603 441.015 345.064 438.776C344.526 436.431 344.255 434.458 344.251 432.858C344.244 429.338 344.715 425.23 345.664 420.535C346.721 415.839 348.097 410.929 349.792 405.806C351.488 400.575 353.343 395.451 355.359 390.433C357.374 385.416 359.444 380.771 361.568 376.5C363.692 372.122 365.604 368.544 367.305 365.767C368.793 363.311 370.923 361.653 373.694 360.793C376.572 359.827 379.291 359.341 381.851 359.336C384.411 359.33 386.438 359.646 387.933 360.282C389.428 360.919 389.856 361.665 389.218 362.519C385.92 366.793 382.465 371.814 378.851 377.582C375.237 383.35 371.73 389.438 368.331 395.845C365.038 402.252 362.065 408.606 359.412 414.905C356.866 421.204 354.905 427.075 353.531 432.518C352.156 437.961 351.686 442.495 352.12 446.121C352.122 446.974 351.59 447.402 350.523 447.404ZM398.201 473.7C397.454 473.702 397.08 473.329 397.078 472.583C397.077 471.943 397.341 470.982 397.872 469.701C398.403 468.526 399.04 467.138 399.783 465.537C402.226 460.731 404.616 456.246 406.954 452.081C409.398 447.916 411.842 443.91 414.287 440.065C409.374 437.196 404.994 433.898 401.146 430.174C397.404 426.448 394.196 422.829 391.522 419.315C388.954 415.8 386.974 412.818 385.582 410.367C384.297 407.917 383.654 406.585 383.654 406.372C383.652 405.838 384.132 405.411 385.091 405.089C386.157 404.766 387.33 404.55 388.609 404.441C389.996 404.331 391.169 404.275 392.129 404.273C393.196 404.271 393.729 404.27 393.729 404.27C395.56 412.372 398.668 419.192 403.054 424.729C407.546 430.16 412.034 434.15 416.52 436.7C420.985 429.65 424.702 422.495 427.673 415.236C430.75 407.869 433.772 399.542 436.739 390.256C436.738 389.936 437.164 389.775 438.017 389.773C439.084 389.771 440.578 390.034 442.499 390.563C444.527 391.092 446.502 391.834 448.424 392.79C450.453 393.639 452.055 394.649 453.231 395.82C454.513 396.884 454.995 397.949 454.678 399.016C452.77 404.567 450.063 410.547 446.557 416.954C443.051 423.255 439.118 429.504 434.758 435.7C430.504 441.789 426.197 447.452 421.835 452.688C417.473 457.925 413.483 462.307 409.864 465.835C406.351 469.362 403.583 471.608 401.558 472.573C400.067 473.323 398.947 473.698 398.201 473.7Z" fill="url(#paint1_linear_903_28)"/>
<defs>
<linearGradient id="paint0_linear_903_28" x1="189.632" y1="59" x2="496.287" y2="277.945" gradientUnits="userSpaceOnUse">
<stop stop-color="#312EBE"/>
<stop offset="1" stop-color="#171558"/>
</linearGradient>
<linearGradient id="paint1_linear_903_28" x1="402.722" y1="796.156" x2="-110.408" y2="733.996" gradientUnits="userSpaceOnUse">
<stop/>
<stop offset="1" stop-color="#666666"/>
</linearGradient>
</defs>
</svg>
